HIERARCHY
ROOT Hips
{
	OFFSET 0.000000 0.000000 0.000000
	CHANNELS 6 Xposition Yposition Zposition Zrotation Yrotation Xrotation 
	JOINT LHipJoint
	{
		OFFSET 0.000000 0.000000 0.000000
		CHANNELS 3 Zrotation Yrotation Xrotation
		JOINT LeftUpLeg
		{
			OFFSET 1.363060 -1.794630 0.839290
			CHANNELS 3 Zrotation Yrotation Xrotation
			JOINT LeftLeg
			{
				OFFSET 2.448110 -6.726130 0.000000
				CHANNELS 3 Zrotation Yrotation Xrotation
				JOINT LeftFoot
				{
					OFFSET 2.562200 -7.039590 0.000000
					CHANNELS 3 Zrotation Yrotation Xrotation
					JOINT LeftToeBase
					{
						OFFSET 0.157640 -0.433110 2.322550
						CHANNELS 3 Zrotation Yrotation Xrotation
						End Site
						{
							OFFSET 0.000000 0.000000 0.000000
						}
					}
				}
			}
		}
	}
	JOINT RHipJoint
	{
		OFFSET 0.000000 0.000000 0.000000
		CHANNELS 3 Zrotation Yrotation Xrotation
		JOINT RightUpLeg
		{
			OFFSET -1.305520 -1.794630 0.839290
			CHANNELS 3 Zrotation Yrotation Xrotation
			JOINT RightLeg
			{
				OFFSET -2.542530 -6.985550 0.000000
				CHANNELS 3 Zrotation Yrotation Xrotation
				JOINT RightFoot
				{
					OFFSET -2.568260 -7.056230 0.000000
					CHANNELS 3 Zrotation Yrotation Xrotation
					JOINT RightToeBase
					{
						OFFSET -0.164730 -0.452590 2.363150
						CHANNELS 3 Zrotation Yrotation Xrotation
						End Site
						{
							OFFSET 0.000000 0.000000 0.000000
						}
					}
				}
			}
		}
	}
	JOINT LowerBack
	{
		OFFSET 0.000000 0.000000 0.000000
		CHANNELS 3 Zrotation Yrotation Xrotation
		JOINT Spine
		{
			OFFSET 0.028270 2.035590 -0.193380
			CHANNELS 3 Zrotation Yrotation Xrotation
			JOINT Spine1
			{
				OFFSET 0.056720 2.048850 -0.042750
				CHANNELS 3 Zrotation Yrotation Xrotation
				JOINT Neck
				{
					OFFSET 0.000000 0.000000 0.000000
					CHANNELS 3 Zrotation Yrotation Xrotation
					JOINT Neck1
					{
						OFFSET -0.054170 1.746240 0.172020
						CHANNELS 3 Zrotation Yrotation Xrotation
						JOINT Head
						{
							OFFSET 0.104070 1.761360 -0.123970
							CHANNELS 3 Zrotation Yrotation Xrotation
							End Site
							{
								OFFSET 0.000000 0.000000 0.000000
							}
						}
					}
				}
				JOINT LeftShoulder
				{
					OFFSET 0.000000 0.000000 0.000000
					CHANNELS 3 Zrotation Yrotation Xrotation
					JOINT LeftArm
					{
						OFFSET 3.362410 1.200890 -0.311210
						CHANNELS 3 Zrotation Yrotation Xrotation
						JOINT LeftForeArm
						{
							OFFSET 4.983000 -0.000000 -0.000000
							CHANNELS 3 Zrotation Yrotation Xrotation
							JOINT LeftHand
							{
								OFFSET 3.483560 -0.000000 -0.000000
								CHANNELS 3 Zrotation Yrotation Xrotation
								JOINT LeftFingerBase
								{
									OFFSET 0.000000 0.000000 0.000000
									CHANNELS 3 Zrotation Yrotation Xrotation
									JOINT LeftHandIndex1
									{
										OFFSET 0.715260 -0.000000 -0.000000
										CHANNELS 3 Zrotation Yrotation Xrotation
										End Site
										{
											OFFSET 0.000000 0.000000 0.000000
										}
									}
								}
								JOINT LThumb
								{
									OFFSET 0.000000 0.000000 0.000000
									CHANNELS 3 Zrotation Yrotation Xrotation
									End Site
									{
										OFFSET 0.000000 0.000000 0.000000
									}
								}
							}
						}
					}
				}
				JOINT RightShoulder
				{
					OFFSET 0.000000 0.000000 0.000000
					CHANNELS 3 Zrotation Yrotation Xrotation
					JOINT RightArm
					{
						OFFSET -3.136600 1.374050 -0.404650
						CHANNELS 3 Zrotation Yrotation Xrotation
						JOINT RightForeArm
						{
							OFFSET -5.241900 -0.000000 -0.000000
							CHANNELS 3 Zrotation Yrotation Xrotation
							JOINT RightHand
							{
								OFFSET -3.444170 -0.000000 -0.000000
								CHANNELS 3 Zrotation Yrotation Xrotation
								JOINT RightFingerBase
								{
									OFFSET 0.000000 0.000000 0.000000
									CHANNELS 3 Zrotation Yrotation Xrotation
									JOINT RightHandIndex1
									{
										OFFSET -0.622530 -0.000000 -0.000000
										CHANNELS 3 Zrotation Yrotation Xrotation
										End Site
										{
											OFFSET 0.000000 0.000000 0.000000
										}
									}
								}
								JOINT RThumb
								{
									OFFSET 0.000000 0.000000 0.000000
									CHANNELS 3 Zrotation Yrotation Xrotation
									End Site
									{
										OFFSET 0.000000 0.000000 0.000000
									}
								}
							}
						}
					}
				}
			}
		}
	}
}
MOTION
Frames: 8
Frame Time: 0.008333
10.692839 16.916365 32.879546 149.927610 -87.088341 -132.349929 7.145824 3.306753 -2.914789 -0.268156 -7.833477 -9.019674 -4.981761 1.021029 0.516741 -8.366319 28.372067 26.065300 1.436400 -7.577400 -21.437600 -7.824225 -2.016029 -3.957977 -6.271466 25.187520 -9.101206 1.676123 -7.377553 12.608123 16.262798 -36.759444 11.063810 -2.141300 9.154400 -26.279500 -3.047941 -0.504604 -8.872797 0.986602 -0.708803 -5.041374 -0.799951 -0.104221 1.744422 0.452797 3.703825 -16.852359 8.046488 4.264270 9.941678 0.633500 2.855600 12.753600 -5.513502 -6.527327 -3.638263 -79.710870 13.479363 14.478729 12.532147 -18.333377 -3.592426 -3.717714 -4.022167 -28.365785 28.167110 2.707030 2.959300 -7.125000 0.000000 0.000000 5.605600 35.318300 -1.338500 8.958315 8.575287 -2.497023 80.138852 -14.019165 -4.656409 -10.682913 13.524694 -2.298875 0.600487 3.519899 -5.991740 -3.195611 -18.860639 1.577200 7.125000 0.000000 0.000000 24.570500 -50.622600 -3.592300 
10.689105 16.915082 32.877796 150.679721 -86.973614 -133.171253 7.155324 3.320468 -2.898049 -0.338023 -7.729052 -8.936018 -4.984559 1.012398 0.558710 -8.361040 28.298837 25.978927 1.403800 -7.494700 -21.189400 -7.837676 -2.011777 -3.978320 -6.273038 25.103388 -9.169663 1.662015 -7.427833 12.693062 16.144079 -36.623860 11.272155 -2.157000 9.185700 -26.378000 -3.186302 -0.531801 -8.869757 0.981813 -0.712804 -5.027790 -0.717761 -0.106717 1.794991 0.484026 3.721168 -16.844153 8.050356 4.275368 9.922399 0.625700 2.863800 12.720600 -5.482991 -6.489998 -3.628289 -79.479656 13.581465 15.003047 12.562334 -18.435798 -3.623424 -3.909505 -3.971882 -28.183774 29.128127 2.249267 2.700500 -7.125000 0.000000 0.000000 6.494000 34.695700 -1.651600 8.937091 8.525160 -2.521825 80.404938 -14.228361 -2.280967 -10.760285 13.652431 -2.370606 0.594111 3.755743 -7.232552 -3.319703 -20.329783 1.778300 7.125000 0.000000 0.000000 25.306200 -52.175600 -4.718400 
10.685721 16.914031 32.875929 151.901681 -86.882256 -134.465132 7.167472 3.336585 -2.884203 -0.375341 -7.616174 -8.854599 -4.980638 1.003689 0.602201 -8.359017 28.243421 25.916316 1.383700 -7.443100 -21.034900 -7.841746 -2.012554 -3.993257 -6.247268 25.009829 -9.231930 1.658476 -7.469147 12.751906 16.018854 -36.487543 11.501692 -2.175700 9.222800 -26.494700 -3.286208 -0.549896 -8.866321 0.978485 -0.712565 -5.012446 -0.631250 -0.106901 1.856511 0.513375 3.741527 -16.839184 8.044915 4.291668 9.904911 0.614600 2.872400 12.686100 -5.455700 -6.453556 -3.615526 -79.101403 13.699597 15.884775 12.569100 -18.529449 -3.650569 -4.031859 -3.948336 -28.501260 29.780746 1.786015 2.385700 -7.125000 0.000000 0.000000 7.084800 34.051800 -1.915200 8.923130 8.472896 -2.536860 80.586445 -14.375203 -0.294134 -10.831034 13.781261 -2.458069 0.608783 4.031128 -8.756166 -3.730097 -22.106679 2.163300 7.125000 0.000000 0.000000 26.014200 -54.078000 -6.121900 
10.682571 16.913215 32.874412 153.734421 -86.824741 -136.374762 7.182984 3.356177 -2.873267 -0.368382 -7.497831 -8.773623 -4.968146 0.994010 0.647792 -8.358559 28.202233 25.880787 1.375000 -7.420500 -20.967300 -7.835088 -2.020889 -4.000431 -6.182801 24.901146 -9.283180 1.669329 -7.497567 12.778892 15.882967 -36.342897 11.754094 -2.195700 9.262400 -26.619700 -3.324817 -0.561889 -8.861937 0.979960 -0.716073 -4.995206 -0.547577 -0.109445 1.931106 0.543249 3.768673 -16.837597 8.030553 4.318079 9.889496 0.599300 2.883800 12.650000 -5.434921 -6.424270 -3.597191 -78.632614 13.786355 16.918870 12.543768 -18.588517 -3.663846 -4.081253 -3.943094 -29.119248 30.052759 1.377475 2.070300 -7.125000 0.000000 0.000000 7.319400 33.474800 -2.082600 8.918957 8.422987 -2.542718 80.681595 -14.461364 1.276328 -10.904795 13.919692 -2.555678 0.637750 4.303578 -10.650897 -4.531173 -23.865357 2.787000 7.125000 0.000000 0.000000 26.386000 -56.022300 -7.505000 
10.679537 16.912281 32.873829 156.035420 -86.794980 -138.764956 7.200403 3.379371 -2.864195 -0.324722 -7.381438 -8.687965 -4.948964 0.983375 0.695097 -8.358901 28.172708 25.867971 1.374700 -7.419800 -20.965300 -7.819911 -2.039955 -3.999662 -6.083290 24.764572 -9.322164 1.693296 -7.510732 12.773713 15.732811 -36.184450 12.039858 -2.215800 9.301800 -26.744100 -3.309996 -0.566271 -8.846979 0.983830 -0.718780 -4.976070 -0.473809 -0.112199 2.012188 0.575988 3.800482 -16.836178 8.009062 4.349782 9.874822 0.580900 2.896600 12.611800 -5.417977 -6.402525 -3.574075 -78.080468 13.854037 18.134680 12.509141 -18.641438 -3.674906 -4.061324 -3.949869 -29.981556 29.963293 1.012374 1.764000 -7.125000 0.000000 0.000000 7.220700 32.959000 -2.144900 8.921414 8.376606 -2.542093 80.706852 -14.490862 2.407342 -10.980693 14.062023 -2.652454 0.668868 4.538249 -12.857624 -5.669379 -25.312187 3.614700 7.125000 0.000000 0.000000 26.220000 -57.718400 -8.552100 
10.676737 16.911231 32.874179 158.841767 -86.789589 -141.668677 7.218526 3.404504 -2.856788 -0.243502 -7.265852 -8.600722 -4.922822 0.971305 0.743997 -8.360043 28.151857 25.873431 1.376500 -7.424500 -20.979200 -7.797789 -2.069329 -3.991256 -5.950538 24.603739 -9.351678 1.729762 -7.510061 12.736707 15.570989 -36.017217 12.357100 -2.237100 9.343400 -26.875400 -3.238825 -0.566956 -8.822334 0.992306 -0.727694 -4.956657 -0.407348 -0.118391 2.088261 0.605968 3.844179 -16.820524 7.978348 4.398380 9.858484 0.559000 2.914800 12.565500 -5.403697 -6.389159 -3.546202 -77.489850 13.900523 19.424572 12.467852 -18.685725 -3.683143 -3.982353 -3.952304 -30.918893 29.533720 0.692187 1.481400 -7.125000 0.000000 0.000000 6.810000 32.511500 -2.095400 8.931940 8.333422 -2.536503 80.657726 -14.488639 3.176357 -11.060387 14.205244 -2.736834 0.701815 4.707178 -15.182449 -7.031524 -26.224865 4.548800 7.125000 0.000000 0.000000 25.375800 -58.931600 -9.003500 
10.673936 16.909831 32.874995 162.002585 -86.798351 -144.937018 7.236210 3.431444 -2.849739 -0.134342 -7.155828 -8.507949 -4.891754 0.957618 0.794463 -8.360365 28.133251 25.889111 1.375200 -7.421000 -20.968700 -7.772435 -2.108636 -3.976108 -5.790573 24.427333 -9.368258 1.775619 -7.498360 12.677452 15.401999 -35.844077 12.693037 -2.262100 9.391900 -27.029000 -3.126069 -0.561151 -8.783761 1.002278 -0.734740 -4.937118 -0.351561 -0.124581 2.159329 0.628638 3.887582 -16.802280 7.944119 4.449243 9.843643 0.539900 2.932300 12.519600 -5.394869 -6.382918 -3.515264 -76.863285 13.925495 20.785860 12.423178 -18.723961 -3.690071 -3.854911 -3.950126 -31.852477 28.827009 0.451464 1.261100 -7.125000 0.000000 0.000000 6.151000 32.183000 -1.939400 8.946935 8.294654 -2.529608 80.558400 -14.468854 3.616682 -11.131086 14.330493 -2.798128 0.737878 4.802693 -17.270955 -8.368212 -26.582421 5.407600 7.125000 0.000000 0.000000 24.061100 -59.585200 -8.881700 
10.671136 16.908081 32.875812 165.355174 -86.810012 -148.406795 7.251471 3.459379 -2.842392 -0.007798 -7.051521 -8.410391 -4.857631 0.943096 0.845664 -8.360749 28.119581 25.912958 1.374300 -7.418700 -20.962000 -7.747324 -2.155438 -3.956571 -5.612695 24.240371 -9.375528 1.827005 -7.479792 12.605955 15.228426 -35.667086 13.041247 -2.290400 9.446400 -27.202100 -2.991954 -0.550808 -8.730796 1.011151 -0.737476 -4.917929 -0.308652 -0.129068 2.216836 0.658625 3.935891 -16.769062 7.904598 4.502994 9.826071 0.517100 2.951000 12.467900 -5.383732 -6.378839 -3.482590 -76.181523 13.970984 22.343293 12.405228 -18.803727 -3.714383 -3.679160 -3.962395 -32.888559 27.922364 0.325665 1.136000 -7.125000 0.000000 0.000000 5.321000 32.025900 -1.695800 8.965259 8.254947 -2.522021 80.421396 -14.446426 3.822141 -11.175705 14.419056 -2.832208 0.773614 4.836880 -18.823900 -9.424156 -26.544434 6.031700 7.125000 0.000000 0.000000 22.719700 -59.774500 -8.457300 
